<svg id="Layer_1" data-name="Layer 1" xmlns="http://www.w3.org/2000/svg" viewBox="0 0 193.16 241.71"><defs><style>.cls-1{fill:#231f20;}</style></defs><title>logo_footer</title><path class="cls-1" d="M769,862.66H713.79c-7.21,0-14.1,6-14.1,13.47v56.51c0,7.44,6.89,13.47,14.1,13.47H769c7.21,0,14.1-6,14.1-13.47V876.13c0-7.44-6.89-13.47-14.1-13.47m0,70H713.79V876.13H769Z" transform="translate(-699.44 -751.2)"/><path class="cls-1" d="M863.86,904l26.59-41.34H873.52l-19.74,30.71a7.8,7.8,0,0,1-6.5,3.54H846a7.81,7.81,0,0,1-6.51-3.54l-19.68-30.71h-16.9l26.62,41.52-28.4,41.93h17.2l21.79-32.2a7.82,7.82,0,0,1,6.5-3.54H847a7.85,7.85,0,0,1,6.5,3.54l21.9,32.2H892.6Z" transform="translate(-699.44 -751.2)"/><path class="cls-1" d="M735.66,785.53,727.72,799H769v22.27H713.81V764.73h61.32l8-13.47h-69.3c-7.21,0-14.1,6-14.1,13.47v56.52c0,7.43,6.89,13.46,14.1,13.46H769c7.21,0,14.11-6,14.11-13.46V785.53Z" transform="translate(-699.44 -751.2)"/><path class="cls-1" d="M873.58,751.2h-61v83.58h61c7.22,0,14.12-6,14.12-13.49V805.5c0-7.45-4.47-13.49-11.7-13.49,7.23,0,11.7-6,11.7-13.48V764.69c0-7.45-6.9-13.49-14.12-13.49m0,64.55a5.46,5.46,0,0,1-5.38,5.54H826.75V799H868.2a5.46,5.46,0,0,1,5.38,5.53Zm0-35.79a5.46,5.46,0,0,1-5.38,5.54H826.75V764.69H868.2a5.45,5.45,0,0,1,5.38,5.53Z" transform="translate(-699.44 -751.2)"/><path class="cls-1" d="M701.83,987.11c.73,2.53,2.13,3.63,4.72,3.63,3.09,0,4.7-1.53,4.7-4.5a4,4,0,0,0-1.23-3.17c-.77-.63-.94-.7-3.85-1.53-4.27-1.2-6-3.1-6-6.67,0-4,2.45-6.37,6.59-6.37,3.57,0,5.54,1.47,6.31,4.73l-2.39.6c-.7-2.3-1.78-3.16-4-3.16-2.45,0-3.89,1.5-3.89,4.06s1.23,3.67,4.74,4.67c2.87.84,3.36,1,4.38,1.81q2,1.54,2,4.9c0,4.4-2.55,6.8-7.32,6.8-4.17,0-6.31-1.53-7.15-5.17Z" transform="translate(-699.44 -751.2)"/><path class="cls-1" d="M740.15,971h-5.82v-2.2h14.34V971h-5.78v21.61h-2.74Z" transform="translate(-699.44 -751.2)"/><path class="cls-1" d="M773.33,968.8V985c0,2.07.17,3.11.73,3.94a3.82,3.82,0,0,0,3.65,1.83c2.1,0,3.29-.6,4.06-2.1a7.76,7.76,0,0,0,.56-3.67V968.8h2.74V985c0,3-.28,4.24-1.26,5.51-1.33,1.7-3.12,2.43-6,2.43s-5-.87-6.2-2.8c-.77-1.17-1-2.44-1-5.14V968.8Z" transform="translate(-699.44 -751.2)"/><path class="cls-1" d="M808.68,968.8h6.65c5.26-.1,7.89,2.6,7.78,7.9v8c.11,5.3-2.52,8-7.78,7.9h-6.65Zm6.41,21.64c3.71.07,5.29-1.76,5.29-6.1V977c0-4.31-1.58-6.14-5.29-6.07h-3.68v19.47Z" transform="translate(-699.44 -751.2)"/><path class="cls-1" d="M846.27,968.8H849v23.81h-2.73Z" transform="translate(-699.44 -751.2)"/><path class="cls-1" d="M872.12,976.7c0-2.9.49-4.63,1.69-6,1.33-1.53,3.15-2.23,5.78-2.23,2.8,0,4.76.83,6.06,2.6,1,1.3,1.37,2.93,1.37,5.6v8c0,2.9-.5,4.63-1.69,6-1.33,1.53-3.15,2.23-5.74,2.23-2.84,0-4.8-.83-6.1-2.6-1-1.3-1.37-3-1.37-5.6Zm12.16.27c0-4.37-1.43-6.3-4.73-6.3s-4.69,1.93-4.69,6.3v7.47c0,4.37,1.43,6.3,4.69,6.3s4.73-1.93,4.73-6.3Z" transform="translate(-699.44 -751.2)"/></svg>